<?xml version="1.0" standalone="no"?>
<!DOCTYPE svg PUBLIC "-//W3C//DTD SVG 20010904//EN"
 "http://www.w3.org/TR/2001/REC-SVG-20010904/DTD/svg10.dtd">
<svg version="1.0" xmlns="http://www.w3.org/2000/svg"
 width="1280.000000pt" height="1280.000000pt" viewBox="0 0 1280.000000 1280.000000"
 preserveAspectRatio="xMidYMid meet">
<metadata>
Created by potrace 1.14, written by Peter Selinger 2001-2017
</metadata>
<g transform="translate(0.000000,1280.000000) scale(0.100000,-0.100000)"
fill="#000000" stroke="none">
<path d="M6225 12787 c-33 -7 -86 -21 -118 -32 -37 -11 -954 -541 -2510 -1450
-2668 -1559 -2528 -1473 -2639 -1629 -63 -90 -108 -179 -144 -286 l-29 -85 -3
-1720 -2 -1721 915 -537 c503 -295 917 -537 920 -537 3 0 6 856 7 1903 l3
1902 1460 853 c1506 879 4070 2384 4100 2406 15 10 -76 68 -677 428 -381 228
-716 427 -745 441 -96 49 -186 68 -338 73 -90 2 -161 -1 -200 -9z"/>
<path d="M7788 11052 c-493 -290 -896 -531 -895 -536 2 -5 744 -453 1650 -995
l1647 -986 -1 -3213 c-1 -1767 1 -3215 3 -3217 9 -9 1470 855 1524 901 147
126 276 363 304 559 14 99 14 5517 0 5619 -28 196 -146 418 -296 555 -41 38
-476 303 -1528 933 -809 485 -1480 887 -1491 894 -18 11 -115 -43 -917 -514z"/>
<path d="M6291 8934 c-126 -34 -249 -132 -306 -243 -47 -94 -55 -159 -55 -473
l0 -287 -962 -3 -963 -3 -59 -23 c-179 -68 -305 -207 -341 -379 -22 -104 -22
-2702 0 -2786 47 -180 187 -309 368 -339 166 -27 353 56 442 196 76 121 69 20
75 1181 l5 1040 28 55 c39 75 98 133 171 167 51 23 75 28 141 28 71 0 88 -4
147 -33 77 -38 130 -92 167 -171 l26 -56 5 -1035 5 -1035 23 -58 c43 -105 124
-190 228 -239 203 -95 440 -31 563 152 81 122 75 39 81 1200 l5 1035 27 50
c35 68 98 129 166 162 48 23 70 27 142 27 71 1 94 -4 142 -26 107 -50 181
-151 199 -273 5 -33 9 -499 9 -1036 0 -932 1 -978 19 -1031 26 -75 58 -123
125 -186 217 -204 569 -136 703 136 l38 76 5 1035 5 1036 23 57 c47 116 166
204 292 215 134 13 275 -69 337 -195 l28 -57 5 -1035 5 -1035 23 -56 c64 -160
191 -264 355 -291 224 -37 455 119 506 343 7 29 11 519 11 1389 0 1473 3 1395
-59 1518 -58 114 -155 199 -289 251 l-67 26 -962 3 -963 3 0 288 c0 159 -5
312 -10 342 -34 177 -177 327 -355 374 -73 19 -182 18 -254 -1z"/>
<path d="M780 4431 c0 -946 -1 -935 61 -1089 59 -150 170 -303 276 -384 69
-53 4829 -2848 4917 -2888 195 -88 511 -86 699 5 29 14 707 409 1507 878
l1455 854 2 459 c2 252 -1 732 -5 1065 l-7 606 -1650 -967 c-907 -532 -1655
-965 -1661 -961 -128 75 -4011 2357 -4662 2740 -499 293 -913 535 -919 538
-10 4 -13 -171 -13 -856z"/>
</g>
</svg>
